<svg width="58" height="18" viewBox="0 0 58 18" fill="none" xmlns="http://www.w3.org/2000/svg">
<path d="M4.664 5.494C5.35333 5.24467 6.08667 5.12 6.864 5.12C7.64133 5.12 8.37467 5.24467 9.064 5.494C9.75333 5.74333 10.3767 6.11 10.934 6.594C11.506 7.06333 11.9533 7.70133 12.276 8.508C12.6133 9.3 12.782 10.2093 12.782 11.236C12.782 12.2627 12.6133 13.1793 12.276 13.986C11.9533 14.778 11.506 15.416 10.934 15.9C10.3767 16.3693 9.75333 16.7287 9.064 16.978C8.37467 17.2273 7.64133 17.352 6.864 17.352C6.08667 17.352 5.35333 17.2273 4.664 16.978C3.97467 16.7287 3.344 16.3693 2.772 15.9C2.21467 15.416 1.76733 14.778 1.43 13.986C1.10733 13.1793 0.946 12.2627 0.946 11.236C0.946 10.2093 1.10733 9.3 1.43 8.508C1.76733 7.70133 2.21467 7.06333 2.772 6.594C3.344 6.11 3.97467 5.74333 4.664 5.494ZM6.864 7.848C6.424 7.848 6.028 7.92133 5.676 8.068C5.33867 8.21467 5.05267 8.43467 4.818 8.728C4.58333 9.00667 4.4 9.35867 4.268 9.784C4.136 10.2093 4.07 10.6933 4.07 11.236C4.07 12.3213 4.312 13.1573 4.796 13.744C5.29467 14.3307 5.984 14.624 6.864 14.624C7.744 14.624 8.426 14.3307 8.91 13.744C9.40867 13.1427 9.658 12.3067 9.658 11.236C9.658 10.1653 9.40867 9.33667 8.91 8.75C8.426 8.14867 7.744 7.848 6.864 7.848ZM22.6385 17L19.4045 12.38L18.2385 13.678V17H15.1585V0.455999H18.2385V10.026L21.8465 5.472H25.6085L21.3845 10.18L26.2905 17H22.6385ZM29.6388 0.543999C29.9761 0.543999 30.2768 0.602666 30.5408 0.72C30.8195 0.822666 31.0468 1.006 31.2228 1.27C31.4135 1.51933 31.5088 1.83467 31.5088 2.216C31.5088 2.58267 31.4135 2.898 31.2228 3.162C31.0468 3.41133 30.8195 3.59467 30.5408 3.712C30.2768 3.82933 29.9761 3.888 29.6388 3.888C29.3161 3.888 29.0228 3.82933 28.7588 3.712C28.4948 3.59467 28.2748 3.41133 28.0988 3.162C27.9228 2.898 27.8348 2.58267 27.8348 2.216C27.8348 1.67333 28.0108 1.26267 28.3628 0.983999C28.7148 0.690666 29.1401 0.543999 29.6388 0.543999ZM31.1788 17H28.1208V5.472H31.1788V17ZM41.8455 17L38.6115 12.38L37.4455 13.678V17H34.3655V0.455999H37.4455V10.026L41.0535 5.472H44.8155L40.5915 10.18L45.4975 17H41.8455ZM55.3358 17L54.7638 15.438C54.3238 16.01 53.8105 16.4573 53.2238 16.78C52.6518 17.1027 51.9258 17.264 51.0458 17.264C49.7845 17.264 48.7945 16.912 48.0758 16.208C47.3718 15.504 47.0198 14.4993 47.0198 13.194V5.472H50.0778V12.468C50.0778 13.832 50.6425 14.514 51.7718 14.514C52.7985 14.514 53.6638 13.9347 54.3678 12.776V5.472H57.4478V17H55.3358Z" fill="black"/>
</svg>
