<svg width="20" height="20" viewBox="0 0 20 20" fill="none" xmlns="http://www.w3.org/2000/svg">
<path d="M6.90594 0H2.31281C1.03754 0 0 1.03754 0 2.31281V6.90594C0 8.18121 1.03754 9.21875 2.31281 9.21875H6.90594C8.18121 9.21875 9.21875 8.18121 9.21875 6.90594V2.31281C9.21875 1.03754 8.18121 0 6.90594 0ZM7.65625 6.90594C7.65625 7.31965 7.31965 7.65625 6.90594 7.65625H2.31281C1.8991 7.65625 1.5625 7.31965 1.5625 6.90594V2.31281C1.5625 1.8991 1.8991 1.5625 2.31281 1.5625H6.90594C7.31965 1.5625 7.65625 1.8991 7.65625 2.31281V6.90594Z" fill="black"/>
<path d="M17.6562 0H13.125C11.8327 0 10.7812 1.05141 10.7812 2.34375V6.875C10.7812 8.16734 11.8327 9.21875 13.125 9.21875H17.6562C18.9486 9.21875 20 8.16734 20 6.875V2.34375C20 1.05141 18.9486 0 17.6562 0ZM18.4375 6.875C18.4375 7.30578 18.087 7.65625 17.6562 7.65625H13.125C12.6942 7.65625 12.3438 7.30578 12.3438 6.875V2.34375C12.3438 1.91297 12.6942 1.5625 13.125 1.5625H17.6562C18.087 1.5625 18.4375 1.91297 18.4375 2.34375V6.875Z" fill="black"/>
<path d="M6.90594 10.7812H2.31281C1.03754 10.7812 0 11.8188 0 13.0941V17.6872C0 18.9625 1.03754 20 2.31281 20H6.90594C8.18121 20 9.21875 18.9625 9.21875 17.6872V13.0941C9.21875 11.8188 8.18121 10.7812 6.90594 10.7812ZM7.65625 17.6872C7.65625 18.1009 7.31965 18.4375 6.90594 18.4375H2.31281C1.8991 18.4375 1.5625 18.1009 1.5625 17.6872V13.0941C1.5625 12.6804 1.8991 12.3438 2.31281 12.3438H6.90594C7.31965 12.3438 7.65625 12.6804 7.65625 13.0941V17.6872Z" fill="black"/>
<path d="M17.6562 10.7812H13.125C11.8327 10.7812 10.7812 11.8327 10.7812 13.125V17.6562C10.7812 18.9486 11.8327 20 13.125 20H17.6562C18.9486 20 20 18.9486 20 17.6562V13.125C20 11.8327 18.9486 10.7812 17.6562 10.7812ZM18.4375 17.6562C18.4375 18.087 18.087 18.4375 17.6562 18.4375H13.125C12.6942 18.4375 12.3438 18.087 12.3438 17.6562V13.125C12.3438 12.6942 12.6942 12.3438 13.125 12.3438H17.6562C18.087 12.3438 18.4375 12.6942 18.4375 13.125V17.6562Z" fill="black"/>
</svg>
